<?xml version="1.0" encoding="UTF-8" standalone="no"?>
<!DOCTYPE svg PUBLIC "-//W3C//DTD SVG 1.1//EN" "http://www.w3.org/Graphics/SVG/1.1/DTD/svg11.dtd">
<svg width="100%" height="100%" viewBox="0 0 450 133" version="1.1" xmlns="http://www.w3.org/2000/svg" xmlns:xlink="http://www.w3.org/1999/xlink" xml:space="preserve" xmlns:serif="http://www.serif.com/" style="fill-rule:evenodd;clip-rule:evenodd;stroke-linejoin:round;stroke-miterlimit:2;">
    <g transform="matrix(2.28655,0,0,1.41736,-64.4745,-21.9395)">
        <path d="M225,24.863C225,19.684 222.394,15.479 219.183,15.479L34.014,15.479C30.804,15.479 28.197,19.684 28.197,24.863L28.197,99.932C28.197,105.111 30.804,109.316 34.014,109.316L219.183,109.316C222.394,109.316 225,105.111 225,99.932L225,24.863Z" style="fill:rgb(0,122,204);"/>
    </g>
    <g id="visualstudio" transform="matrix(3.3931,0,0,3.3931,66.8529,66.5)">
        <g transform="matrix(1,0,0,1,-12,-12)">
            <path d="M17.58,0.07C17.199,0.065 16.83,0.205 16.548,0.462C16.548,0.462 16.547,0.462 16.547,0.462C16.53,0.476 16.513,0.491 16.497,0.507L8.53,9.317L3.88,5.504L3.473,5.154C3.188,4.917 2.793,4.857 2.45,5C2.446,5.002 2.442,5.003 2.438,5.005L0.622,5.755C0.596,5.766 0.57,5.777 0.545,5.79C0.529,5.799 0.513,5.808 0.498,5.818C0.485,5.825 0.473,5.832 0.46,5.84C0.444,5.851 0.428,5.862 0.412,5.874C0.402,5.882 0.391,5.89 0.381,5.898C0.366,5.91 0.352,5.922 0.338,5.934C0.326,5.945 0.314,5.956 0.302,5.967C0.291,5.978 0.28,5.99 0.27,6.002C0.259,6.014 0.248,6.027 0.237,6.04C0.225,6.054 0.213,6.069 0.202,6.084C0.194,6.095 0.186,6.107 0.178,6.118C0.167,6.135 0.156,6.152 0.146,6.169C0.139,6.18 0.132,6.192 0.126,6.203C0.118,6.219 0.11,6.236 0.102,6.253C0.095,6.268 0.088,6.283 0.082,6.298C0.076,6.313 0.071,6.327 0.066,6.342C0.06,6.358 0.055,6.373 0.05,6.389C0.044,6.407 0.039,6.426 0.035,6.444C0.031,6.457 0.028,6.471 0.025,6.484C0.022,6.502 0.019,6.52 0.017,6.538C0.015,6.555 0.013,6.571 0.011,6.588C0.009,6.616 0.007,6.643 0.007,6.671L0.007,17.33C0.009,17.731 0.252,18.093 0.622,18.247L2.438,19.01C2.785,19.155 3.186,19.091 3.472,18.847L3.88,18.497L8.53,14.684L16.498,23.494C16.521,23.516 16.545,23.538 16.57,23.559C16.589,23.576 16.608,23.593 16.627,23.609C16.646,23.623 16.665,23.637 16.685,23.651C16.706,23.666 16.727,23.681 16.748,23.695C16.769,23.708 16.791,23.721 16.813,23.733C16.834,23.746 16.856,23.758 16.878,23.769C16.9,23.78 16.923,23.79 16.946,23.8C16.969,23.811 16.992,23.821 17.016,23.83C17.04,23.839 17.064,23.847 17.089,23.855C17.111,23.862 17.133,23.869 17.155,23.875C17.181,23.882 17.208,23.889 17.235,23.895C17.258,23.9 17.28,23.905 17.303,23.909C17.328,23.913 17.353,23.916 17.378,23.919C17.403,23.922 17.428,23.924 17.453,23.926C17.477,23.928 17.502,23.929 17.526,23.929C17.552,23.93 17.577,23.93 17.603,23.929C17.629,23.928 17.655,23.926 17.681,23.924C17.703,23.922 17.726,23.92 17.748,23.917C17.777,23.913 17.806,23.909 17.835,23.903C17.855,23.899 17.875,23.895 17.895,23.891C17.922,23.884 17.949,23.877 17.975,23.869C17.998,23.863 18.02,23.856 18.043,23.849C18.067,23.84 18.09,23.831 18.113,23.821C18.143,23.81 18.173,23.797 18.202,23.784L23.144,21.408C23.325,21.32 23.487,21.197 23.619,21.046C23.651,21.01 23.681,20.973 23.709,20.934C23.71,20.932 23.712,20.929 23.713,20.927C23.742,20.887 23.768,20.845 23.793,20.802C23.815,20.763 23.836,20.723 23.855,20.682C23.858,20.676 23.861,20.671 23.864,20.665C23.879,20.63 23.893,20.594 23.905,20.558C23.91,20.546 23.914,20.533 23.919,20.521C23.93,20.486 23.94,20.45 23.949,20.414C23.952,20.402 23.955,20.389 23.958,20.377C23.965,20.344 23.97,20.311 23.975,20.277C23.978,20.26 23.981,20.244 23.983,20.227C23.986,20.197 23.988,20.166 23.989,20.136C23.991,20.11 23.992,20.083 23.993,20.057L23.993,3.946C23.993,3.945 23.993,3.945 23.993,3.944C23.993,3.933 23.993,3.923 23.993,3.912C23.992,3.862 23.989,3.812 23.983,3.762C23.921,3.255 23.604,2.813 23.143,2.592L18.203,0.217C18.009,0.124 17.797,0.075 17.582,0.071L17.58,0.07ZM17.997,6.922L17.997,17.079L11.802,12.001L17.997,6.922ZM3.005,8.576L6.102,12.001L3.005,15.425L3.005,8.576Z" style="fill:white;fill-rule:nonzero;"/>
        </g>
    </g>
    <g transform="matrix(1,0,0,1,-63.0971,6.14331)">
        <g transform="matrix(19,0,0,19,198.305,39.2193)">
            <path d="M0.24,-0.72L0.366,-0.72L0.556,0L0.46,0L0.41,-0.203L0.189,-0.203L0.138,0L0.044,0L0.24,-0.72ZM0.208,-0.278L0.392,-0.278L0.322,-0.563C0.319,-0.577 0.316,-0.59 0.313,-0.602C0.31,-0.613 0.308,-0.624 0.307,-0.633C0.306,-0.643 0.304,-0.652 0.303,-0.66L0.299,-0.66C0.298,-0.652 0.296,-0.643 0.294,-0.633C0.293,-0.624 0.291,-0.613 0.288,-0.602C0.285,-0.59 0.282,-0.577 0.279,-0.563L0.208,-0.278Z" style="fill:white;fill-rule:nonzero;"/>
        </g>
        <g transform="matrix(19,0,0,19,209.705,39.2193)">
            <path d="M0.05,-0.55L0.145,-0.55L0.279,-0.161C0.284,-0.146 0.288,-0.132 0.291,-0.121C0.294,-0.109 0.296,-0.099 0.297,-0.091C0.298,-0.081 0.299,-0.072 0.299,-0.065L0.308,-0.065C0.307,-0.072 0.308,-0.081 0.309,-0.091C0.31,-0.099 0.312,-0.109 0.314,-0.121C0.316,-0.132 0.32,-0.146 0.325,-0.161L0.452,-0.55L0.55,-0.55L0.353,0L0.251,0L0.05,-0.55Z" style="fill:white;fill-rule:nonzero;"/>
        </g>
        <g transform="matrix(19,0,0,19,221.105,39.2193)">
            <path d="M0.063,-0.16C0.063,-0.186 0.068,-0.21 0.077,-0.231C0.086,-0.252 0.099,-0.269 0.116,-0.284C0.133,-0.299 0.153,-0.31 0.177,-0.318C0.201,-0.326 0.228,-0.33 0.258,-0.33L0.422,-0.33L0.422,-0.375C0.422,-0.409 0.411,-0.436 0.389,-0.455C0.366,-0.473 0.334,-0.483 0.292,-0.483C0.261,-0.483 0.235,-0.477 0.214,-0.466C0.192,-0.455 0.177,-0.439 0.17,-0.419L0.08,-0.419C0.089,-0.462 0.113,-0.497 0.152,-0.522C0.19,-0.547 0.237,-0.56 0.294,-0.56C0.362,-0.56 0.415,-0.544 0.454,-0.513C0.493,-0.481 0.512,-0.437 0.512,-0.38L0.512,0L0.43,0L0.43,-0.105L0.422,-0.105C0.413,-0.07 0.393,-0.042 0.361,-0.021C0.329,0 0.29,0.01 0.244,0.01C0.189,0.01 0.145,-0.005 0.112,-0.036C0.079,-0.067 0.063,-0.108 0.063,-0.16ZM0.264,-0.064C0.287,-0.064 0.308,-0.067 0.327,-0.073C0.346,-0.079 0.363,-0.087 0.377,-0.099C0.391,-0.11 0.402,-0.122 0.41,-0.137C0.418,-0.152 0.422,-0.168 0.422,-0.185L0.422,-0.26L0.26,-0.26C0.227,-0.26 0.201,-0.251 0.182,-0.234C0.163,-0.217 0.153,-0.193 0.153,-0.162C0.153,-0.131 0.163,-0.107 0.182,-0.09C0.201,-0.073 0.229,-0.064 0.264,-0.064Z" style="fill:white;fill-rule:nonzero;"/>
        </g>
        <g transform="matrix(19,0,0,19,232.505,39.2193)">
            <path d="M0.095,0L0.095,-0.082L0.295,-0.082L0.295,-0.468L0.12,-0.468L0.12,-0.55L0.385,-0.55L0.385,-0.082L0.55,-0.082L0.55,0L0.095,0ZM0.315,-0.765L0.335,-0.765C0.354,-0.765 0.37,-0.759 0.382,-0.748C0.394,-0.737 0.4,-0.722 0.4,-0.704C0.4,-0.686 0.394,-0.672 0.382,-0.661C0.37,-0.65 0.354,-0.645 0.335,-0.645L0.315,-0.645C0.296,-0.645 0.28,-0.65 0.268,-0.661C0.256,-0.671 0.25,-0.685 0.25,-0.704C0.25,-0.722 0.256,-0.737 0.268,-0.748C0.28,-0.759 0.296,-0.765 0.315,-0.765Z" style="fill:white;fill-rule:nonzero;"/>
        </g>
        <g transform="matrix(19,0,0,19,243.905,39.2193)">
            <path d="M0.312,-0.73L0.312,-0.16C0.312,-0.135 0.319,-0.116 0.332,-0.102C0.345,-0.089 0.364,-0.082 0.387,-0.082L0.55,-0.082L0.55,0L0.387,0C0.336,0 0.295,-0.014 0.266,-0.043C0.237,-0.071 0.222,-0.11 0.222,-0.16L0.222,-0.648L0.04,-0.648L0.04,-0.73L0.312,-0.73Z" style="fill:white;fill-rule:nonzero;"/>
        </g>
        <g transform="matrix(19,0,0,19,255.305,39.2193)">
            <path d="M0.063,-0.16C0.063,-0.186 0.068,-0.21 0.077,-0.231C0.086,-0.252 0.099,-0.269 0.116,-0.284C0.133,-0.299 0.153,-0.31 0.177,-0.318C0.201,-0.326 0.228,-0.33 0.258,-0.33L0.422,-0.33L0.422,-0.375C0.422,-0.409 0.411,-0.436 0.389,-0.455C0.366,-0.473 0.334,-0.483 0.292,-0.483C0.261,-0.483 0.235,-0.477 0.214,-0.466C0.192,-0.455 0.177,-0.439 0.17,-0.419L0.08,-0.419C0.089,-0.462 0.113,-0.497 0.152,-0.522C0.19,-0.547 0.237,-0.56 0.294,-0.56C0.362,-0.56 0.415,-0.544 0.454,-0.513C0.493,-0.481 0.512,-0.437 0.512,-0.38L0.512,0L0.43,0L0.43,-0.105L0.422,-0.105C0.413,-0.07 0.393,-0.042 0.361,-0.021C0.329,0 0.29,0.01 0.244,0.01C0.189,0.01 0.145,-0.005 0.112,-0.036C0.079,-0.067 0.063,-0.108 0.063,-0.16ZM0.264,-0.064C0.287,-0.064 0.308,-0.067 0.327,-0.073C0.346,-0.079 0.363,-0.087 0.377,-0.099C0.391,-0.11 0.402,-0.122 0.41,-0.137C0.418,-0.152 0.422,-0.168 0.422,-0.185L0.422,-0.26L0.26,-0.26C0.227,-0.26 0.201,-0.251 0.182,-0.234C0.163,-0.217 0.153,-0.193 0.153,-0.162C0.153,-0.131 0.163,-0.107 0.182,-0.09C0.201,-0.073 0.229,-0.064 0.264,-0.064Z" style="fill:white;fill-rule:nonzero;"/>
        </g>
        <g transform="matrix(19,0,0,19,266.705,39.2193)">
            <path d="M0.088,-0.73L0.178,-0.73L0.178,-0.56C0.178,-0.551 0.178,-0.54 0.178,-0.528C0.177,-0.515 0.177,-0.504 0.176,-0.493C0.175,-0.48 0.174,-0.468 0.173,-0.455L0.181,-0.455C0.19,-0.488 0.207,-0.514 0.234,-0.533C0.261,-0.551 0.294,-0.56 0.335,-0.56C0.363,-0.56 0.388,-0.555 0.411,-0.545C0.434,-0.535 0.453,-0.521 0.469,-0.502C0.485,-0.484 0.498,-0.462 0.506,-0.435C0.516,-0.408 0.52,-0.378 0.52,-0.345L0.52,-0.205C0.52,-0.172 0.516,-0.142 0.506,-0.115C0.498,-0.088 0.485,-0.066 0.469,-0.048C0.453,-0.029 0.434,-0.015 0.411,-0.005C0.388,0.005 0.363,0.01 0.335,0.01C0.294,0.01 0.261,0.001 0.234,-0.018C0.207,-0.036 0.19,-0.062 0.181,-0.095L0.173,-0.095L0.173,0L0.088,0L0.088,-0.73ZM0.178,-0.205C0.178,-0.163 0.189,-0.13 0.212,-0.105C0.234,-0.08 0.264,-0.068 0.301,-0.068C0.341,-0.068 0.373,-0.08 0.396,-0.105C0.419,-0.13 0.43,-0.163 0.43,-0.205L0.43,-0.345C0.43,-0.388 0.419,-0.422 0.396,-0.446C0.373,-0.47 0.342,-0.482 0.301,-0.482C0.264,-0.482 0.234,-0.47 0.212,-0.445C0.189,-0.42 0.178,-0.387 0.178,-0.345L0.178,-0.205Z" style="fill:white;fill-rule:nonzero;"/>
        </g>
        <g transform="matrix(19,0,0,19,278.105,39.2193)">
            <path d="M0.312,-0.73L0.312,-0.16C0.312,-0.135 0.319,-0.116 0.332,-0.102C0.345,-0.089 0.364,-0.082 0.387,-0.082L0.55,-0.082L0.55,0L0.387,0C0.336,0 0.295,-0.014 0.266,-0.043C0.237,-0.071 0.222,-0.11 0.222,-0.16L0.222,-0.648L0.04,-0.648L0.04,-0.73L0.312,-0.73Z" style="fill:white;fill-rule:nonzero;"/>
        </g>
        <g transform="matrix(19,0,0,19,289.505,39.2193)">
            <path d="M0.3,0.01C0.231,0.01 0.178,-0.009 0.139,-0.046C0.1,-0.083 0.08,-0.135 0.08,-0.2L0.08,-0.35C0.08,-0.415 0.1,-0.467 0.139,-0.504C0.178,-0.541 0.231,-0.56 0.3,-0.56C0.369,-0.56 0.423,-0.541 0.462,-0.504C0.5,-0.467 0.52,-0.415 0.52,-0.35L0.52,-0.249L0.17,-0.249L0.17,-0.205C0.17,-0.163 0.182,-0.13 0.204,-0.106C0.228,-0.082 0.259,-0.07 0.3,-0.07C0.33,-0.07 0.356,-0.075 0.378,-0.084C0.4,-0.093 0.416,-0.107 0.427,-0.125L0.517,-0.125C0.506,-0.083 0.481,-0.05 0.442,-0.026C0.403,-0.002 0.355,0.01 0.3,0.01ZM0.43,-0.324L0.43,-0.35C0.43,-0.391 0.419,-0.423 0.396,-0.446C0.373,-0.469 0.341,-0.48 0.3,-0.48C0.259,-0.48 0.227,-0.469 0.204,-0.446C0.181,-0.423 0.17,-0.391 0.17,-0.35L0.17,-0.324L0.43,-0.324Z" style="fill:white;fill-rule:nonzero;"/>
        </g>
        <g transform="matrix(19,0,0,19,312.305,39.2193)">
            <path d="M0.17,-0.205C0.17,-0.163 0.182,-0.13 0.204,-0.106C0.228,-0.082 0.259,-0.07 0.3,-0.07C0.34,-0.07 0.372,-0.082 0.395,-0.106C0.418,-0.13 0.43,-0.163 0.43,-0.205L0.43,-0.345C0.43,-0.387 0.418,-0.42 0.395,-0.444C0.372,-0.468 0.34,-0.48 0.3,-0.48C0.26,-0.48 0.228,-0.468 0.205,-0.444C0.182,-0.42 0.17,-0.387 0.17,-0.345L0.17,-0.205ZM0.08,-0.345C0.08,-0.378 0.085,-0.408 0.096,-0.435C0.106,-0.461 0.121,-0.483 0.14,-0.502C0.159,-0.521 0.182,-0.535 0.209,-0.545C0.235,-0.555 0.266,-0.56 0.3,-0.56C0.368,-0.56 0.422,-0.541 0.461,-0.503C0.5,-0.465 0.52,-0.413 0.52,-0.346L0.52,-0.205C0.52,-0.172 0.515,-0.142 0.505,-0.115C0.495,-0.088 0.481,-0.066 0.462,-0.048C0.443,-0.029 0.419,-0.015 0.392,-0.005C0.365,0.005 0.334,0.01 0.3,0.01C0.266,0.01 0.235,0.005 0.209,-0.005C0.182,-0.015 0.159,-0.029 0.14,-0.048C0.121,-0.067 0.106,-0.089 0.096,-0.116C0.085,-0.143 0.08,-0.172 0.08,-0.205L0.08,-0.345Z" style="fill:white;fill-rule:nonzero;"/>
        </g>
        <g transform="matrix(19,0,0,19,323.705,39.2193)">
            <path d="M0.088,0L0.088,-0.55L0.173,-0.55L0.173,-0.455L0.181,-0.455C0.19,-0.488 0.207,-0.514 0.234,-0.533C0.26,-0.551 0.293,-0.56 0.332,-0.56C0.359,-0.56 0.384,-0.555 0.406,-0.546C0.429,-0.537 0.448,-0.524 0.464,-0.506C0.479,-0.49 0.491,-0.469 0.5,-0.446C0.509,-0.422 0.513,-0.395 0.513,-0.366L0.513,0L0.423,0L0.423,-0.351C0.423,-0.393 0.412,-0.426 0.391,-0.449C0.37,-0.472 0.34,-0.484 0.302,-0.484C0.264,-0.484 0.234,-0.471 0.212,-0.447C0.189,-0.422 0.178,-0.388 0.178,-0.345L0.178,0L0.088,0Z" style="fill:white;fill-rule:nonzero;"/>
        </g>
        <g transform="matrix(19,0,0,19,346.505,39.2193)">
            <path d="M0.06,-0.55L0.22,-0.55L0.22,-0.72L0.31,-0.72L0.31,-0.55L0.525,-0.55L0.525,-0.468L0.31,-0.468L0.31,-0.142C0.31,-0.123 0.316,-0.109 0.328,-0.098C0.339,-0.087 0.355,-0.082 0.375,-0.082L0.515,-0.082L0.515,0L0.375,0C0.328,0 0.29,-0.013 0.262,-0.039C0.234,-0.065 0.22,-0.099 0.22,-0.142L0.22,-0.468L0.06,-0.468L0.06,-0.55Z" style="fill:white;fill-rule:nonzero;"/>
        </g>
        <g transform="matrix(19,0,0,19,357.905,39.2193)">
            <path d="M0.088,-0.73L0.178,-0.73L0.178,-0.55C0.178,-0.541 0.178,-0.531 0.178,-0.52C0.177,-0.508 0.177,-0.498 0.176,-0.489C0.175,-0.478 0.174,-0.466 0.173,-0.455L0.181,-0.455C0.19,-0.488 0.207,-0.514 0.234,-0.533C0.26,-0.551 0.293,-0.56 0.332,-0.56C0.359,-0.56 0.384,-0.555 0.406,-0.546C0.429,-0.537 0.448,-0.524 0.464,-0.506C0.479,-0.49 0.491,-0.469 0.5,-0.446C0.509,-0.422 0.513,-0.395 0.513,-0.366L0.513,0L0.423,0L0.423,-0.351C0.423,-0.393 0.412,-0.426 0.391,-0.449C0.37,-0.472 0.34,-0.484 0.302,-0.484C0.264,-0.484 0.234,-0.471 0.212,-0.447C0.189,-0.422 0.178,-0.388 0.178,-0.345L0.178,0L0.088,0L0.088,-0.73Z" style="fill:white;fill-rule:nonzero;"/>
        </g>
        <g transform="matrix(19,0,0,19,369.305,39.2193)">
            <path d="M0.3,0.01C0.231,0.01 0.178,-0.009 0.139,-0.046C0.1,-0.083 0.08,-0.135 0.08,-0.2L0.08,-0.35C0.08,-0.415 0.1,-0.467 0.139,-0.504C0.178,-0.541 0.231,-0.56 0.3,-0.56C0.369,-0.56 0.423,-0.541 0.462,-0.504C0.5,-0.467 0.52,-0.415 0.52,-0.35L0.52,-0.249L0.17,-0.249L0.17,-0.205C0.17,-0.163 0.182,-0.13 0.204,-0.106C0.228,-0.082 0.259,-0.07 0.3,-0.07C0.33,-0.07 0.356,-0.075 0.378,-0.084C0.4,-0.093 0.416,-0.107 0.427,-0.125L0.517,-0.125C0.506,-0.083 0.481,-0.05 0.442,-0.026C0.403,-0.002 0.355,0.01 0.3,0.01ZM0.43,-0.324L0.43,-0.35C0.43,-0.391 0.419,-0.423 0.396,-0.446C0.373,-0.469 0.341,-0.48 0.3,-0.48C0.259,-0.48 0.227,-0.469 0.204,-0.446C0.181,-0.423 0.17,-0.391 0.17,-0.35L0.17,-0.324L0.43,-0.324Z" style="fill:white;fill-rule:nonzero;"/>
        </g>
    </g>
    <g transform="matrix(1,0,0,1,-63.0971,31.433)">
        <g transform="matrix(34,0,0,34,198.305,60.1219)">
            <path d="M0.024,-0.72L0.153,-0.72L0.281,-0.183C0.284,-0.172 0.287,-0.16 0.289,-0.148C0.291,-0.136 0.293,-0.125 0.294,-0.115C0.295,-0.104 0.297,-0.094 0.298,-0.083L0.303,-0.083C0.304,-0.094 0.306,-0.104 0.307,-0.115C0.308,-0.125 0.31,-0.136 0.313,-0.148C0.315,-0.16 0.317,-0.172 0.32,-0.183L0.449,-0.72L0.576,-0.72L0.382,0L0.213,0L0.024,-0.72Z" style="fill:white;fill-rule:nonzero;"/>
        </g>
        <g transform="matrix(34,0,0,34,218.705,60.1219)">
            <path d="M0.3,0.01C0.265,0.01 0.232,0.005 0.203,-0.004C0.173,-0.013 0.147,-0.027 0.126,-0.045C0.105,-0.062 0.088,-0.083 0.076,-0.108C0.063,-0.133 0.056,-0.16 0.055,-0.191L0.183,-0.191C0.184,-0.162 0.196,-0.14 0.218,-0.124C0.239,-0.107 0.268,-0.099 0.303,-0.099C0.34,-0.099 0.368,-0.107 0.389,-0.124C0.409,-0.141 0.419,-0.163 0.419,-0.191C0.419,-0.216 0.411,-0.237 0.396,-0.255C0.381,-0.273 0.359,-0.286 0.331,-0.295L0.255,-0.317C0.131,-0.351 0.069,-0.422 0.069,-0.531C0.069,-0.561 0.075,-0.588 0.086,-0.613C0.097,-0.638 0.112,-0.659 0.132,-0.677C0.152,-0.694 0.176,-0.708 0.205,-0.717C0.234,-0.726 0.266,-0.731 0.302,-0.731C0.37,-0.731 0.425,-0.714 0.467,-0.679C0.508,-0.644 0.531,-0.595 0.534,-0.534L0.407,-0.534C0.406,-0.561 0.395,-0.583 0.375,-0.598C0.355,-0.613 0.33,-0.621 0.299,-0.621C0.266,-0.621 0.241,-0.613 0.222,-0.598C0.203,-0.583 0.194,-0.562 0.194,-0.537C0.194,-0.489 0.223,-0.457 0.281,-0.44L0.361,-0.418C0.421,-0.401 0.467,-0.374 0.498,-0.337C0.529,-0.299 0.545,-0.252 0.545,-0.197C0.545,-0.166 0.539,-0.137 0.528,-0.112C0.516,-0.087 0.499,-0.065 0.478,-0.047C0.457,-0.029 0.431,-0.015 0.401,-0.005C0.371,0.005 0.337,0.01 0.3,0.01Z" style="fill:white;fill-rule:nonzero;"/>
        </g>
        <g transform="matrix(34,0,0,34,259.505,60.1219)">
            <path d="M0.055,0L0.055,-0.72L0.203,-0.72L0.282,-0.491C0.285,-0.484 0.287,-0.476 0.289,-0.467C0.291,-0.458 0.293,-0.45 0.294,-0.443C0.296,-0.434 0.298,-0.426 0.299,-0.418L0.306,-0.418C0.307,-0.426 0.309,-0.434 0.311,-0.443C0.313,-0.45 0.315,-0.458 0.317,-0.467C0.319,-0.476 0.321,-0.484 0.324,-0.491L0.396,-0.72L0.546,-0.72L0.546,0L0.434,0L0.434,-0.467C0.434,-0.482 0.435,-0.498 0.436,-0.515C0.437,-0.532 0.439,-0.547 0.44,-0.561C0.441,-0.578 0.443,-0.594 0.445,-0.61L0.436,-0.61C0.433,-0.595 0.429,-0.58 0.425,-0.565C0.422,-0.552 0.418,-0.539 0.415,-0.526C0.412,-0.512 0.408,-0.499 0.405,-0.488L0.353,-0.317L0.249,-0.317L0.194,-0.488C0.191,-0.499 0.187,-0.512 0.184,-0.526C0.181,-0.539 0.177,-0.552 0.174,-0.565C0.171,-0.58 0.168,-0.595 0.165,-0.61L0.155,-0.61C0.157,-0.594 0.159,-0.578 0.161,-0.561C0.162,-0.547 0.164,-0.532 0.165,-0.515C0.166,-0.498 0.166,-0.482 0.166,-0.467L0.166,0L0.055,0Z" style="fill:white;fill-rule:nonzero;"/>
        </g>
        <g transform="matrix(34,0,0,34,279.905,60.1219)">
            <path d="M0.051,-0.154C0.051,-0.181 0.056,-0.206 0.066,-0.228C0.076,-0.249 0.09,-0.268 0.109,-0.283C0.128,-0.298 0.15,-0.31 0.177,-0.319C0.203,-0.327 0.232,-0.331 0.265,-0.331L0.403,-0.331L0.403,-0.378C0.403,-0.403 0.394,-0.424 0.375,-0.439C0.356,-0.454 0.329,-0.461 0.296,-0.461C0.269,-0.461 0.246,-0.456 0.227,-0.446C0.208,-0.436 0.196,-0.422 0.191,-0.405L0.068,-0.405C0.077,-0.453 0.101,-0.491 0.142,-0.519C0.183,-0.546 0.234,-0.56 0.296,-0.56C0.331,-0.56 0.363,-0.556 0.392,-0.548C0.421,-0.539 0.445,-0.527 0.465,-0.511C0.485,-0.496 0.5,-0.477 0.511,-0.455C0.523,-0.432 0.528,-0.407 0.528,-0.38L0.528,0L0.41,0L0.41,-0.108L0.402,-0.108C0.395,-0.072 0.377,-0.043 0.345,-0.022C0.315,-0.001 0.276,0.01 0.23,0.01C0.175,0.01 0.132,-0.005 0.1,-0.035C0.067,-0.064 0.051,-0.104 0.051,-0.154ZM0.273,-0.088C0.311,-0.088 0.342,-0.097 0.367,-0.116C0.391,-0.134 0.403,-0.157 0.403,-0.185L0.403,-0.249L0.266,-0.249C0.238,-0.249 0.216,-0.242 0.2,-0.228C0.184,-0.214 0.176,-0.194 0.176,-0.169C0.176,-0.144 0.185,-0.124 0.202,-0.11C0.219,-0.095 0.242,-0.088 0.273,-0.088Z" style="fill:white;fill-rule:nonzero;"/>
        </g>
        <g transform="matrix(34,0,0,34,300.305,60.1219)">
            <path d="M0.095,-0.55L0.213,-0.55L0.213,-0.455L0.222,-0.455C0.229,-0.488 0.245,-0.514 0.272,-0.533C0.299,-0.551 0.333,-0.56 0.374,-0.56C0.433,-0.56 0.48,-0.542 0.513,-0.505C0.546,-0.468 0.563,-0.418 0.563,-0.353L0.563,-0.313L0.432,-0.313L0.432,-0.342C0.432,-0.377 0.422,-0.405 0.403,-0.425C0.384,-0.444 0.357,-0.454 0.323,-0.454C0.291,-0.454 0.266,-0.444 0.248,-0.424C0.229,-0.404 0.22,-0.377 0.22,-0.342L0.22,0L0.095,0L0.095,-0.55Z" style="fill:white;fill-rule:nonzero;"/>
        </g>
        <g transform="matrix(34,0,0,34,320.705,60.1219)">
            <path d="M0.205,-0.73L0.205,-0.333L0.293,-0.333L0.43,-0.55L0.57,-0.55L0.4,-0.282L0.573,0L0.43,0L0.293,-0.226L0.205,-0.226L0.205,0L0.08,0L0.08,-0.73L0.205,-0.73Z" style="fill:white;fill-rule:nonzero;"/>
        </g>
        <g transform="matrix(34,0,0,34,341.105,60.1219)">
            <path d="M0.3,0.01C0.264,0.01 0.231,0.005 0.202,-0.006C0.172,-0.016 0.147,-0.03 0.126,-0.049C0.105,-0.068 0.089,-0.09 0.078,-0.117C0.067,-0.144 0.061,-0.173 0.061,-0.206L0.061,-0.345C0.061,-0.378 0.067,-0.407 0.078,-0.434C0.089,-0.461 0.105,-0.483 0.126,-0.502C0.147,-0.521 0.172,-0.535 0.202,-0.545C0.231,-0.555 0.264,-0.56 0.3,-0.56C0.336,-0.56 0.369,-0.555 0.398,-0.545C0.427,-0.534 0.452,-0.52 0.473,-0.501C0.494,-0.482 0.51,-0.46 0.521,-0.433C0.532,-0.406 0.538,-0.377 0.538,-0.344L0.538,-0.244L0.185,-0.244L0.185,-0.208C0.185,-0.171 0.195,-0.143 0.216,-0.122C0.236,-0.101 0.264,-0.091 0.3,-0.091C0.327,-0.091 0.35,-0.095 0.37,-0.103C0.389,-0.112 0.402,-0.124 0.41,-0.14L0.533,-0.14C0.527,-0.117 0.517,-0.097 0.503,-0.078C0.489,-0.059 0.472,-0.043 0.452,-0.031C0.431,-0.018 0.408,-0.008 0.383,-0.001C0.357,0.006 0.329,0.01 0.3,0.01ZM0.415,-0.328L0.415,-0.344C0.415,-0.381 0.405,-0.409 0.385,-0.43C0.365,-0.45 0.337,-0.46 0.3,-0.46C0.264,-0.46 0.236,-0.45 0.216,-0.43C0.195,-0.409 0.185,-0.381 0.185,-0.345L0.185,-0.328L0.415,-0.328Z" style="fill:white;fill-rule:nonzero;"/>
        </g>
        <g transform="matrix(34,0,0,34,361.505,60.1219)">
            <path d="M0.045,-0.55L0.197,-0.55L0.197,-0.72L0.322,-0.72L0.322,-0.55L0.531,-0.55L0.531,-0.437L0.322,-0.437L0.322,-0.17C0.322,-0.153 0.327,-0.139 0.338,-0.129C0.348,-0.118 0.362,-0.113 0.381,-0.113L0.521,-0.113L0.521,0L0.372,0C0.318,0 0.275,-0.015 0.244,-0.046C0.213,-0.077 0.197,-0.118 0.197,-0.17L0.197,-0.437L0.045,-0.437L0.045,-0.55Z" style="fill:white;fill-rule:nonzero;"/>
        </g>
        <g transform="matrix(34,0,0,34,381.905,60.1219)">
            <path d="M0.194,-0.55L0.194,-0.455L0.203,-0.455C0.21,-0.488 0.226,-0.513 0.252,-0.532C0.277,-0.551 0.31,-0.56 0.35,-0.56C0.379,-0.56 0.405,-0.555 0.428,-0.545C0.451,-0.535 0.471,-0.521 0.488,-0.502C0.504,-0.483 0.517,-0.461 0.526,-0.435C0.535,-0.408 0.539,-0.378 0.539,-0.345L0.539,-0.208C0.539,-0.175 0.535,-0.145 0.526,-0.117C0.517,-0.091 0.504,-0.068 0.488,-0.049C0.471,-0.029 0.451,-0.015 0.428,-0.005C0.405,0.005 0.379,0.01 0.35,0.01C0.31,0.01 0.277,0.001 0.252,-0.018C0.226,-0.037 0.21,-0.063 0.203,-0.096L0.194,-0.096C0.194,-0.094 0.194,-0.09 0.195,-0.084C0.196,-0.077 0.196,-0.07 0.197,-0.061C0.198,-0.051 0.198,-0.042 0.199,-0.031C0.199,-0.02 0.199,-0.01 0.199,0L0.199,0.165L0.073,0.165L0.073,-0.55L0.194,-0.55ZM0.199,-0.208C0.199,-0.175 0.209,-0.149 0.228,-0.129C0.247,-0.109 0.272,-0.099 0.305,-0.099C0.339,-0.099 0.366,-0.109 0.385,-0.13C0.404,-0.15 0.414,-0.177 0.414,-0.211L0.414,-0.342C0.414,-0.376 0.404,-0.403 0.385,-0.423C0.366,-0.442 0.339,-0.452 0.305,-0.452C0.273,-0.452 0.247,-0.442 0.228,-0.422C0.209,-0.402 0.199,-0.375 0.199,-0.342L0.199,-0.208Z" style="fill:white;fill-rule:nonzero;"/>
        </g>
        <g transform="matrix(34,0,0,34,402.305,60.1219)">
            <path d="M0.331,-0.73L0.331,-0.178C0.331,-0.157 0.337,-0.141 0.348,-0.13C0.36,-0.119 0.376,-0.113 0.395,-0.113L0.559,-0.113L0.559,0L0.386,0C0.33,0 0.286,-0.016 0.254,-0.047C0.222,-0.078 0.206,-0.122 0.206,-0.178L0.206,-0.617L0.031,-0.617L0.031,-0.73L0.331,-0.73Z" style="fill:white;fill-rule:nonzero;"/>
        </g>
        <g transform="matrix(34,0,0,34,422.705,60.1219)">
            <path d="M0.051,-0.154C0.051,-0.181 0.056,-0.206 0.066,-0.228C0.076,-0.249 0.09,-0.268 0.109,-0.283C0.128,-0.298 0.15,-0.31 0.177,-0.319C0.203,-0.327 0.232,-0.331 0.265,-0.331L0.403,-0.331L0.403,-0.378C0.403,-0.403 0.394,-0.424 0.375,-0.439C0.356,-0.454 0.329,-0.461 0.296,-0.461C0.269,-0.461 0.246,-0.456 0.227,-0.446C0.208,-0.436 0.196,-0.422 0.191,-0.405L0.068,-0.405C0.077,-0.453 0.101,-0.491 0.142,-0.519C0.183,-0.546 0.234,-0.56 0.296,-0.56C0.331,-0.56 0.363,-0.556 0.392,-0.548C0.421,-0.539 0.445,-0.527 0.465,-0.511C0.485,-0.496 0.5,-0.477 0.511,-0.455C0.523,-0.432 0.528,-0.407 0.528,-0.38L0.528,0L0.41,0L0.41,-0.108L0.402,-0.108C0.395,-0.072 0.377,-0.043 0.345,-0.022C0.315,-0.001 0.276,0.01 0.23,0.01C0.175,0.01 0.132,-0.005 0.1,-0.035C0.067,-0.064 0.051,-0.104 0.051,-0.154ZM0.273,-0.088C0.311,-0.088 0.342,-0.097 0.367,-0.116C0.391,-0.134 0.403,-0.157 0.403,-0.185L0.403,-0.249L0.266,-0.249C0.238,-0.249 0.216,-0.242 0.2,-0.228C0.184,-0.214 0.176,-0.194 0.176,-0.169C0.176,-0.144 0.185,-0.124 0.202,-0.11C0.219,-0.095 0.242,-0.088 0.273,-0.088Z" style="fill:white;fill-rule:nonzero;"/>
        </g>
        <g transform="matrix(34,0,0,34,443.105,60.1219)">
            <path d="M0.306,0.01C0.27,0.01 0.237,0.005 0.208,-0.005C0.179,-0.015 0.154,-0.029 0.133,-0.048C0.112,-0.067 0.096,-0.089 0.085,-0.116C0.074,-0.142 0.068,-0.171 0.068,-0.204L0.068,-0.345C0.068,-0.378 0.074,-0.407 0.085,-0.434C0.096,-0.46 0.112,-0.482 0.133,-0.501C0.154,-0.52 0.179,-0.534 0.208,-0.545C0.237,-0.555 0.27,-0.56 0.306,-0.56C0.338,-0.56 0.368,-0.556 0.395,-0.547C0.422,-0.538 0.446,-0.525 0.467,-0.507C0.488,-0.491 0.505,-0.47 0.519,-0.447C0.532,-0.423 0.541,-0.396 0.546,-0.366L0.421,-0.366C0.416,-0.391 0.404,-0.412 0.383,-0.428C0.362,-0.443 0.337,-0.451 0.306,-0.451C0.271,-0.451 0.243,-0.442 0.223,-0.423C0.203,-0.404 0.193,-0.378 0.193,-0.345L0.193,-0.204C0.193,-0.171 0.203,-0.146 0.223,-0.127C0.242,-0.108 0.27,-0.099 0.306,-0.099C0.336,-0.099 0.362,-0.107 0.383,-0.123C0.404,-0.138 0.416,-0.159 0.421,-0.184L0.546,-0.184C0.541,-0.154 0.532,-0.127 0.519,-0.103C0.505,-0.08 0.488,-0.059 0.467,-0.043C0.446,-0.025 0.422,-0.013 0.395,-0.004C0.368,0.005 0.338,0.01 0.306,0.01Z" style="fill:white;fill-rule:nonzero;"/>
        </g>
        <g transform="matrix(34,0,0,34,463.505,60.1219)">
            <path d="M0.3,0.01C0.264,0.01 0.231,0.005 0.202,-0.006C0.172,-0.016 0.147,-0.03 0.126,-0.049C0.105,-0.068 0.089,-0.09 0.078,-0.117C0.067,-0.144 0.061,-0.173 0.061,-0.206L0.061,-0.345C0.061,-0.378 0.067,-0.407 0.078,-0.434C0.089,-0.461 0.105,-0.483 0.126,-0.502C0.147,-0.521 0.172,-0.535 0.202,-0.545C0.231,-0.555 0.264,-0.56 0.3,-0.56C0.336,-0.56 0.369,-0.555 0.398,-0.545C0.427,-0.534 0.452,-0.52 0.473,-0.501C0.494,-0.482 0.51,-0.46 0.521,-0.433C0.532,-0.406 0.538,-0.377 0.538,-0.344L0.538,-0.244L0.185,-0.244L0.185,-0.208C0.185,-0.171 0.195,-0.143 0.216,-0.122C0.236,-0.101 0.264,-0.091 0.3,-0.091C0.327,-0.091 0.35,-0.095 0.37,-0.103C0.389,-0.112 0.402,-0.124 0.41,-0.14L0.533,-0.14C0.527,-0.117 0.517,-0.097 0.503,-0.078C0.489,-0.059 0.472,-0.043 0.452,-0.031C0.431,-0.018 0.408,-0.008 0.383,-0.001C0.357,0.006 0.329,0.01 0.3,0.01ZM0.415,-0.328L0.415,-0.344C0.415,-0.381 0.405,-0.409 0.385,-0.43C0.365,-0.45 0.337,-0.46 0.3,-0.46C0.264,-0.46 0.236,-0.45 0.216,-0.43C0.195,-0.409 0.185,-0.381 0.185,-0.345L0.185,-0.328L0.415,-0.328Z" style="fill:white;fill-rule:nonzero;"/>
        </g>
    </g>
</svg>
